<mxfile host="app.diagrams.net" agent="Mozilla/5.0 (Windows NT 10.0; Win64; x64) AppleWebKit/537.36 (KHTML, like Gecko) Chrome/129.0.0.0 Safari/537.36 Edg/129.0.0.0" version="24.7.17">
  <diagram name="Page-1" id="pVC7pq-5zv80Dxx87Lfu">
    <mxGraphModel dx="827" dy="479" grid="1" gridSize="10" guides="1" tooltips="1" connect="1" arrows="1" fold="1" page="1" pageScale="1" pageWidth="850" pageHeight="1100" math="0" shadow="0">
      <root>
        <object label="" language="" id="0">
          <mxCell />
        </object>
        <mxCell id="1" parent="0" />
        <object label="" id="8cCIm4Pd3RRphdGVdave-1">
          <mxCell style="rounded=0;whiteSpace=wrap;html=1;" vertex="1" parent="1">
            <mxGeometry x="130" y="120" width="120" height="60" as="geometry" />
          </mxCell>
        </object>
        <mxCell id="8cCIm4Pd3RRphdGVdave-2" value="&lt;font style=&quot;font-size: 18px;&quot;&gt;Lessons&lt;/font&gt;" style="rounded=0;whiteSpace=wrap;html=1;" vertex="1" parent="1">
          <mxGeometry x="510" y="120" width="120" height="60" as="geometry" />
        </mxCell>
        <mxCell id="8cCIm4Pd3RRphdGVdave-3" value="&lt;font style=&quot;font-size: 18px;&quot;&gt;Users&lt;/font&gt;" style="rounded=0;whiteSpace=wrap;html=1;" vertex="1" parent="1">
          <mxGeometry x="125" y="300" width="120" height="60" as="geometry" />
        </mxCell>
        <mxCell id="8cCIm4Pd3RRphdGVdave-4" value="&lt;font style=&quot;font-size: 18px;&quot;&gt;Progress&lt;/font&gt;" style="rounded=0;whiteSpace=wrap;html=1;" vertex="1" parent="1">
          <mxGeometry x="510" y="300" width="120" height="60" as="geometry" />
        </mxCell>
        <mxCell id="8cCIm4Pd3RRphdGVdave-5" value="has" style="rhombus;whiteSpace=wrap;html=1;" vertex="1" parent="1">
          <mxGeometry x="350" y="30" width="60" height="50" as="geometry" />
        </mxCell>
        <mxCell id="8cCIm4Pd3RRphdGVdave-6" value="takes" style="rhombus;whiteSpace=wrap;html=1;" vertex="1" parent="1">
          <mxGeometry x="350" y="230" width="70" height="50" as="geometry" />
        </mxCell>
        <mxCell id="8cCIm4Pd3RRphdGVdave-7" value="tracks" style="rhombus;whiteSpace=wrap;html=1;" vertex="1" parent="1">
          <mxGeometry x="370" y="350" width="70" height="50" as="geometry" />
        </mxCell>
        <mxCell id="8cCIm4Pd3RRphdGVdave-8" value="learns" style="rhombus;whiteSpace=wrap;html=1;" vertex="1" parent="1">
          <mxGeometry x="150" y="200" width="70" height="60" as="geometry" />
        </mxCell>
        <mxCell id="8cCIm4Pd3RRphdGVdave-9" value="has" style="rhombus;whiteSpace=wrap;html=1;" vertex="1" parent="1">
          <mxGeometry x="540" y="440" width="60" height="50" as="geometry" />
        </mxCell>
        <mxCell id="8cCIm4Pd3RRphdGVdave-10" value="" style="endArrow=none;html=1;rounded=0;exitX=0.5;exitY=0;exitDx=0;exitDy=0;entryX=0;entryY=0.5;entryDx=0;entryDy=0;" edge="1" parent="1" source="8cCIm4Pd3RRphdGVdave-1" target="8cCIm4Pd3RRphdGVdave-5">
          <mxGeometry width="50" height="50" relative="1" as="geometry">
            <mxPoint x="380" y="260" as="sourcePoint" />
            <mxPoint x="190" y="40" as="targetPoint" />
            <Array as="points">
              <mxPoint x="190" y="55" />
            </Array>
          </mxGeometry>
        </mxCell>
        <mxCell id="8cCIm4Pd3RRphdGVdave-11" value="&lt;font style=&quot;font-size: 18px;&quot;&gt;Language&lt;/font&gt;" style="text;strokeColor=none;align=center;fillColor=none;html=1;verticalAlign=middle;whiteSpace=wrap;rounded=0;" vertex="1" parent="1">
          <mxGeometry x="125" y="120" width="120" height="60" as="geometry" />
        </mxCell>
        <mxCell id="8cCIm4Pd3RRphdGVdave-12" value="" style="endArrow=none;html=1;rounded=0;exitX=1;exitY=0.5;exitDx=0;exitDy=0;entryX=0;entryY=0.5;entryDx=0;entryDy=0;" edge="1" parent="1" source="8cCIm4Pd3RRphdGVdave-3" target="8cCIm4Pd3RRphdGVdave-6">
          <mxGeometry width="50" height="50" relative="1" as="geometry">
            <mxPoint x="380" y="260" as="sourcePoint" />
            <mxPoint x="430" y="210" as="targetPoint" />
            <Array as="points">
              <mxPoint x="350" y="330" />
            </Array>
          </mxGeometry>
        </mxCell>
        <mxCell id="8cCIm4Pd3RRphdGVdave-13" value="" style="endArrow=none;html=1;rounded=0;exitX=0;exitY=0.5;exitDx=0;exitDy=0;entryX=0.5;entryY=0;entryDx=0;entryDy=0;" edge="1" parent="1" source="8cCIm4Pd3RRphdGVdave-2" target="8cCIm4Pd3RRphdGVdave-6">
          <mxGeometry width="50" height="50" relative="1" as="geometry">
            <mxPoint x="390" y="240" as="sourcePoint" />
            <mxPoint x="440" y="190" as="targetPoint" />
            <Array as="points">
              <mxPoint x="385" y="150" />
            </Array>
          </mxGeometry>
        </mxCell>
        <mxCell id="8cCIm4Pd3RRphdGVdave-14" value="" style="endArrow=none;html=1;rounded=0;entryX=0.5;entryY=1;entryDx=0;entryDy=0;" edge="1" parent="1" target="8cCIm4Pd3RRphdGVdave-8">
          <mxGeometry width="50" height="50" relative="1" as="geometry">
            <mxPoint x="185" y="300" as="sourcePoint" />
            <mxPoint x="190" y="270" as="targetPoint" />
          </mxGeometry>
        </mxCell>
        <mxCell id="8cCIm4Pd3RRphdGVdave-16" value="" style="endArrow=none;html=1;rounded=0;entryX=0.5;entryY=1;entryDx=0;entryDy=0;exitX=0.5;exitY=0;exitDx=0;exitDy=0;" edge="1" parent="1" source="8cCIm4Pd3RRphdGVdave-8" target="8cCIm4Pd3RRphdGVdave-11">
          <mxGeometry width="50" height="50" relative="1" as="geometry">
            <mxPoint x="230" y="240" as="sourcePoint" />
            <mxPoint x="280" y="190" as="targetPoint" />
          </mxGeometry>
        </mxCell>
        <mxCell id="8cCIm4Pd3RRphdGVdave-19" value="" style="endArrow=none;html=1;rounded=0;entryX=0;entryY=0.5;entryDx=0;entryDy=0;exitX=0.5;exitY=1;exitDx=0;exitDy=0;" edge="1" parent="1" source="8cCIm4Pd3RRphdGVdave-3" target="8cCIm4Pd3RRphdGVdave-7">
          <mxGeometry width="50" height="50" relative="1" as="geometry">
            <mxPoint x="250" y="460" as="sourcePoint" />
            <mxPoint x="300" y="410" as="targetPoint" />
            <Array as="points">
              <mxPoint x="185" y="375" />
            </Array>
          </mxGeometry>
        </mxCell>
        <mxCell id="8cCIm4Pd3RRphdGVdave-20" value="" style="endArrow=none;html=1;rounded=0;entryX=0.5;entryY=0;entryDx=0;entryDy=0;exitX=1;exitY=0.5;exitDx=0;exitDy=0;" edge="1" parent="1" source="8cCIm4Pd3RRphdGVdave-5" target="8cCIm4Pd3RRphdGVdave-2">
          <mxGeometry width="50" height="50" relative="1" as="geometry">
            <mxPoint x="370" y="270" as="sourcePoint" />
            <mxPoint x="420" y="220" as="targetPoint" />
            <Array as="points">
              <mxPoint x="570" y="55" />
            </Array>
          </mxGeometry>
        </mxCell>
        <mxCell id="8cCIm4Pd3RRphdGVdave-21" value="" style="endArrow=none;html=1;rounded=0;entryX=0;entryY=0.5;entryDx=0;entryDy=0;exitX=0;exitY=0.5;exitDx=0;exitDy=0;" edge="1" parent="1" source="8cCIm4Pd3RRphdGVdave-11" target="8cCIm4Pd3RRphdGVdave-9">
          <mxGeometry width="50" height="50" relative="1" as="geometry">
            <mxPoint x="300" y="500" as="sourcePoint" />
            <mxPoint x="350" y="450" as="targetPoint" />
            <Array as="points">
              <mxPoint x="50" y="150" />
              <mxPoint x="50" y="465" />
            </Array>
          </mxGeometry>
        </mxCell>
        <mxCell id="8cCIm4Pd3RRphdGVdave-22" value="" style="endArrow=none;html=1;rounded=0;entryX=0.5;entryY=1;entryDx=0;entryDy=0;exitX=0.5;exitY=0;exitDx=0;exitDy=0;" edge="1" parent="1" source="8cCIm4Pd3RRphdGVdave-9" target="8cCIm4Pd3RRphdGVdave-4">
          <mxGeometry width="50" height="50" relative="1" as="geometry">
            <mxPoint x="570" y="430" as="sourcePoint" />
            <mxPoint x="410" y="240" as="targetPoint" />
          </mxGeometry>
        </mxCell>
        <mxCell id="8cCIm4Pd3RRphdGVdave-25" value="&lt;u&gt;LanguageID&lt;/u&gt;" style="ellipse;whiteSpace=wrap;html=1;" vertex="1" parent="1">
          <mxGeometry x="60" y="50" width="80" height="30" as="geometry" />
        </mxCell>
        <mxCell id="8cCIm4Pd3RRphdGVdave-26" value="&lt;u&gt;UserID&lt;/u&gt;" style="ellipse;whiteSpace=wrap;html=1;" vertex="1" parent="1">
          <mxGeometry x="60" y="390" width="60" height="20" as="geometry" />
        </mxCell>
        <mxCell id="8cCIm4Pd3RRphdGVdave-27" value="Name" style="ellipse;whiteSpace=wrap;html=1;" vertex="1" parent="1">
          <mxGeometry x="57.5" y="360" width="60" height="20" as="geometry" />
        </mxCell>
        <mxCell id="8cCIm4Pd3RRphdGVdave-28" value="ResgistationDate" style="ellipse;whiteSpace=wrap;html=1;" vertex="1" parent="1">
          <mxGeometry x="115" y="410" width="100" height="40" as="geometry" />
        </mxCell>
        <mxCell id="8cCIm4Pd3RRphdGVdave-29" value="Email" style="ellipse;whiteSpace=wrap;html=1;" vertex="1" parent="1">
          <mxGeometry x="60" y="300" width="55" height="20" as="geometry" />
        </mxCell>
        <mxCell id="8cCIm4Pd3RRphdGVdave-30" value="Address" style="ellipse;whiteSpace=wrap;html=1;" vertex="1" parent="1">
          <mxGeometry x="57.5" y="330" width="60" height="20" as="geometry" />
        </mxCell>
        <mxCell id="8cCIm4Pd3RRphdGVdave-32" value="" style="endArrow=none;html=1;rounded=0;exitX=0.5;exitY=0;exitDx=0;exitDy=0;entryX=0.343;entryY=1.004;entryDx=0;entryDy=0;entryPerimeter=0;" edge="1" parent="1" source="8cCIm4Pd3RRphdGVdave-28" target="8cCIm4Pd3RRphdGVdave-3">
          <mxGeometry width="50" height="50" relative="1" as="geometry">
            <mxPoint x="340" y="300" as="sourcePoint" />
            <mxPoint x="390" y="250" as="targetPoint" />
          </mxGeometry>
        </mxCell>
        <mxCell id="8cCIm4Pd3RRphdGVdave-33" value="" style="endArrow=none;html=1;rounded=0;exitX=1;exitY=0.5;exitDx=0;exitDy=0;entryX=0.25;entryY=1;entryDx=0;entryDy=0;" edge="1" parent="1" source="8cCIm4Pd3RRphdGVdave-26" target="8cCIm4Pd3RRphdGVdave-3">
          <mxGeometry width="50" height="50" relative="1" as="geometry">
            <mxPoint x="125" y="400" as="sourcePoint" />
            <mxPoint x="175" y="350" as="targetPoint" />
          </mxGeometry>
        </mxCell>
        <mxCell id="8cCIm4Pd3RRphdGVdave-34" value="" style="endArrow=none;html=1;rounded=0;entryX=0.172;entryY=1.004;entryDx=0;entryDy=0;entryPerimeter=0;exitX=1;exitY=0.5;exitDx=0;exitDy=0;" edge="1" parent="1" source="8cCIm4Pd3RRphdGVdave-27" target="8cCIm4Pd3RRphdGVdave-3">
          <mxGeometry width="50" height="50" relative="1" as="geometry">
            <mxPoint x="120" y="370" as="sourcePoint" />
            <mxPoint x="390" y="250" as="targetPoint" />
          </mxGeometry>
        </mxCell>
        <mxCell id="8cCIm4Pd3RRphdGVdave-35" value="" style="endArrow=none;html=1;rounded=0;exitX=1;exitY=0.5;exitDx=0;exitDy=0;entryX=0.005;entryY=0.64;entryDx=0;entryDy=0;entryPerimeter=0;" edge="1" parent="1" source="8cCIm4Pd3RRphdGVdave-30" target="8cCIm4Pd3RRphdGVdave-3">
          <mxGeometry width="50" height="50" relative="1" as="geometry">
            <mxPoint x="340" y="300" as="sourcePoint" />
            <mxPoint x="390" y="250" as="targetPoint" />
          </mxGeometry>
        </mxCell>
        <mxCell id="8cCIm4Pd3RRphdGVdave-36" value="" style="endArrow=none;html=1;rounded=0;exitX=1;exitY=0.5;exitDx=0;exitDy=0;entryX=0;entryY=0.156;entryDx=0;entryDy=0;entryPerimeter=0;" edge="1" parent="1" source="8cCIm4Pd3RRphdGVdave-29" target="8cCIm4Pd3RRphdGVdave-3">
          <mxGeometry width="50" height="50" relative="1" as="geometry">
            <mxPoint x="340" y="300" as="sourcePoint" />
            <mxPoint x="390" y="250" as="targetPoint" />
          </mxGeometry>
        </mxCell>
        <mxCell id="8cCIm4Pd3RRphdGVdave-37" value="Name" style="ellipse;whiteSpace=wrap;html=1;" vertex="1" parent="1">
          <mxGeometry x="55" y="90" width="60" height="20" as="geometry" />
        </mxCell>
        <mxCell id="8cCIm4Pd3RRphdGVdave-38" value="DifficultyLevel" style="ellipse;whiteSpace=wrap;html=1;" vertex="1" parent="1">
          <mxGeometry x="20" y="120" width="95" height="20" as="geometry" />
        </mxCell>
        <mxCell id="8cCIm4Pd3RRphdGVdave-39" value="" style="endArrow=none;html=1;rounded=0;entryX=1;entryY=0.5;entryDx=0;entryDy=0;" edge="1" parent="1" target="8cCIm4Pd3RRphdGVdave-25">
          <mxGeometry width="50" height="50" relative="1" as="geometry">
            <mxPoint x="160" y="120" as="sourcePoint" />
            <mxPoint x="430" y="270" as="targetPoint" />
          </mxGeometry>
        </mxCell>
        <mxCell id="8cCIm4Pd3RRphdGVdave-41" value="" style="endArrow=none;html=1;rounded=0;exitX=1;exitY=0.5;exitDx=0;exitDy=0;entryX=0.25;entryY=0;entryDx=0;entryDy=0;" edge="1" parent="1" source="8cCIm4Pd3RRphdGVdave-37" target="8cCIm4Pd3RRphdGVdave-11">
          <mxGeometry width="50" height="50" relative="1" as="geometry">
            <mxPoint x="380" y="320" as="sourcePoint" />
            <mxPoint x="430" y="270" as="targetPoint" />
          </mxGeometry>
        </mxCell>
        <mxCell id="8cCIm4Pd3RRphdGVdave-42" value="" style="endArrow=none;html=1;rounded=0;exitX=1;exitY=0.5;exitDx=0;exitDy=0;" edge="1" parent="1" source="8cCIm4Pd3RRphdGVdave-38">
          <mxGeometry width="50" height="50" relative="1" as="geometry">
            <mxPoint x="380" y="320" as="sourcePoint" />
            <mxPoint x="130" y="130" as="targetPoint" />
          </mxGeometry>
        </mxCell>
        <mxCell id="8cCIm4Pd3RRphdGVdave-43" value="&lt;u&gt;LessonID&lt;/u&gt;" style="ellipse;whiteSpace=wrap;html=1;" vertex="1" parent="1">
          <mxGeometry x="650" y="110" width="70" height="20" as="geometry" />
        </mxCell>
        <mxCell id="8cCIm4Pd3RRphdGVdave-44" value="&lt;u&gt;ProgressID&lt;/u&gt;" style="ellipse;whiteSpace=wrap;html=1;" vertex="1" parent="1">
          <mxGeometry x="680" y="300" width="80" height="30" as="geometry" />
        </mxCell>
        <mxCell id="8cCIm4Pd3RRphdGVdave-45" value="Title" style="ellipse;whiteSpace=wrap;html=1;" vertex="1" parent="1">
          <mxGeometry x="660" y="140" width="60" height="20" as="geometry" />
        </mxCell>
        <mxCell id="8cCIm4Pd3RRphdGVdave-46" value="LanguageID" style="ellipse;whiteSpace=wrap;html=1;" vertex="1" parent="1">
          <mxGeometry x="590" y="70" width="80" height="30" as="geometry" />
        </mxCell>
        <mxCell id="8cCIm4Pd3RRphdGVdave-47" value="Content" style="ellipse;whiteSpace=wrap;html=1;" vertex="1" parent="1">
          <mxGeometry x="660" y="170" width="60" height="20" as="geometry" />
        </mxCell>
        <mxCell id="8cCIm4Pd3RRphdGVdave-48" value="DifficultyLevel" style="ellipse;whiteSpace=wrap;html=1;" vertex="1" parent="1">
          <mxGeometry x="575" y="200" width="95" height="20" as="geometry" />
        </mxCell>
        <mxCell id="8cCIm4Pd3RRphdGVdave-49" value="LanguageID" style="ellipse;whiteSpace=wrap;html=1;" vertex="1" parent="1">
          <mxGeometry x="680" y="340" width="80" height="30" as="geometry" />
        </mxCell>
        <mxCell id="8cCIm4Pd3RRphdGVdave-50" value="UserID" style="ellipse;whiteSpace=wrap;html=1;" vertex="1" parent="1">
          <mxGeometry x="687.5" y="380" width="65" height="20" as="geometry" />
        </mxCell>
        <mxCell id="8cCIm4Pd3RRphdGVdave-51" value="CompletionStatus" style="ellipse;whiteSpace=wrap;html=1;" vertex="1" parent="1">
          <mxGeometry x="663.75" y="410" width="112.5" height="30" as="geometry" />
        </mxCell>
        <mxCell id="8cCIm4Pd3RRphdGVdave-52" value="Grade" style="ellipse;whiteSpace=wrap;html=1;" vertex="1" parent="1">
          <mxGeometry x="622.5" y="260" width="65" height="20" as="geometry" />
        </mxCell>
        <mxCell id="8cCIm4Pd3RRphdGVdave-53" value="TestScore" style="ellipse;whiteSpace=wrap;html=1;" vertex="1" parent="1">
          <mxGeometry x="537.5" y="260" width="65" height="20" as="geometry" />
        </mxCell>
        <mxCell id="8cCIm4Pd3RRphdGVdave-54" value="" style="endArrow=none;html=1;rounded=0;exitX=0.5;exitY=0;exitDx=0;exitDy=0;entryX=0.5;entryY=1;entryDx=0;entryDy=0;" edge="1" parent="1" source="8cCIm4Pd3RRphdGVdave-4" target="8cCIm4Pd3RRphdGVdave-53">
          <mxGeometry width="50" height="50" relative="1" as="geometry">
            <mxPoint x="380" y="320" as="sourcePoint" />
            <mxPoint x="430" y="270" as="targetPoint" />
          </mxGeometry>
        </mxCell>
        <mxCell id="8cCIm4Pd3RRphdGVdave-55" value="" style="endArrow=none;html=1;rounded=0;entryX=0.5;entryY=1;entryDx=0;entryDy=0;exitX=0.75;exitY=0;exitDx=0;exitDy=0;" edge="1" parent="1" source="8cCIm4Pd3RRphdGVdave-4" target="8cCIm4Pd3RRphdGVdave-52">
          <mxGeometry width="50" height="50" relative="1" as="geometry">
            <mxPoint x="580" y="450" as="sourcePoint" />
            <mxPoint x="580" y="370" as="targetPoint" />
          </mxGeometry>
        </mxCell>
        <mxCell id="8cCIm4Pd3RRphdGVdave-56" value="" style="endArrow=none;html=1;rounded=0;entryX=0;entryY=0.5;entryDx=0;entryDy=0;exitX=1;exitY=0.25;exitDx=0;exitDy=0;" edge="1" parent="1" source="8cCIm4Pd3RRphdGVdave-4" target="8cCIm4Pd3RRphdGVdave-44">
          <mxGeometry width="50" height="50" relative="1" as="geometry">
            <mxPoint x="590" y="460" as="sourcePoint" />
            <mxPoint x="590" y="380" as="targetPoint" />
          </mxGeometry>
        </mxCell>
        <mxCell id="8cCIm4Pd3RRphdGVdave-57" value="" style="endArrow=none;html=1;rounded=0;entryX=0;entryY=0.5;entryDx=0;entryDy=0;exitX=1;exitY=0.75;exitDx=0;exitDy=0;" edge="1" parent="1" source="8cCIm4Pd3RRphdGVdave-4" target="8cCIm4Pd3RRphdGVdave-49">
          <mxGeometry width="50" height="50" relative="1" as="geometry">
            <mxPoint x="600" y="470" as="sourcePoint" />
            <mxPoint x="600" y="390" as="targetPoint" />
          </mxGeometry>
        </mxCell>
        <mxCell id="8cCIm4Pd3RRphdGVdave-58" value="" style="endArrow=none;html=1;rounded=0;entryX=0;entryY=0.5;entryDx=0;entryDy=0;exitX=1;exitY=1;exitDx=0;exitDy=0;" edge="1" parent="1" source="8cCIm4Pd3RRphdGVdave-4" target="8cCIm4Pd3RRphdGVdave-50">
          <mxGeometry width="50" height="50" relative="1" as="geometry">
            <mxPoint x="610" y="480" as="sourcePoint" />
            <mxPoint x="610" y="400" as="targetPoint" />
          </mxGeometry>
        </mxCell>
        <mxCell id="8cCIm4Pd3RRphdGVdave-59" value="" style="endArrow=none;html=1;rounded=0;entryX=0;entryY=0.5;entryDx=0;entryDy=0;exitX=0.75;exitY=1;exitDx=0;exitDy=0;" edge="1" parent="1" source="8cCIm4Pd3RRphdGVdave-4" target="8cCIm4Pd3RRphdGVdave-51">
          <mxGeometry width="50" height="50" relative="1" as="geometry">
            <mxPoint x="620" y="490" as="sourcePoint" />
            <mxPoint x="620" y="410" as="targetPoint" />
          </mxGeometry>
        </mxCell>
        <mxCell id="8cCIm4Pd3RRphdGVdave-60" value="" style="endArrow=none;html=1;rounded=0;entryX=1;entryY=1;entryDx=0;entryDy=0;exitX=0;exitY=0.5;exitDx=0;exitDy=0;" edge="1" parent="1" source="8cCIm4Pd3RRphdGVdave-47" target="8cCIm4Pd3RRphdGVdave-2">
          <mxGeometry width="50" height="50" relative="1" as="geometry">
            <mxPoint x="630" y="500" as="sourcePoint" />
            <mxPoint x="630" y="420" as="targetPoint" />
          </mxGeometry>
        </mxCell>
        <mxCell id="8cCIm4Pd3RRphdGVdave-61" value="" style="endArrow=none;html=1;rounded=0;entryX=0.5;entryY=0;entryDx=0;entryDy=0;exitX=0.75;exitY=1;exitDx=0;exitDy=0;" edge="1" parent="1" source="8cCIm4Pd3RRphdGVdave-2" target="8cCIm4Pd3RRphdGVdave-48">
          <mxGeometry width="50" height="50" relative="1" as="geometry">
            <mxPoint x="670" y="190" as="sourcePoint" />
            <mxPoint x="640" y="190" as="targetPoint" />
          </mxGeometry>
        </mxCell>
        <mxCell id="8cCIm4Pd3RRphdGVdave-62" value="" style="endArrow=none;html=1;rounded=0;entryX=0;entryY=0.5;entryDx=0;entryDy=0;exitX=1;exitY=0.5;exitDx=0;exitDy=0;" edge="1" parent="1" source="8cCIm4Pd3RRphdGVdave-2" target="8cCIm4Pd3RRphdGVdave-45">
          <mxGeometry width="50" height="50" relative="1" as="geometry">
            <mxPoint x="680" y="200" as="sourcePoint" />
            <mxPoint x="650" y="200" as="targetPoint" />
          </mxGeometry>
        </mxCell>
        <mxCell id="8cCIm4Pd3RRphdGVdave-63" value="" style="endArrow=none;html=1;rounded=0;entryX=1;entryY=0;entryDx=0;entryDy=0;exitX=0;exitY=0.5;exitDx=0;exitDy=0;" edge="1" parent="1" source="8cCIm4Pd3RRphdGVdave-43" target="8cCIm4Pd3RRphdGVdave-2">
          <mxGeometry width="50" height="50" relative="1" as="geometry">
            <mxPoint x="690" y="210" as="sourcePoint" />
            <mxPoint x="660" y="210" as="targetPoint" />
          </mxGeometry>
        </mxCell>
        <mxCell id="8cCIm4Pd3RRphdGVdave-64" value="" style="endArrow=none;html=1;rounded=0;entryX=0.75;entryY=0;entryDx=0;entryDy=0;exitX=0.5;exitY=1;exitDx=0;exitDy=0;" edge="1" parent="1" source="8cCIm4Pd3RRphdGVdave-46" target="8cCIm4Pd3RRphdGVdave-2">
          <mxGeometry width="50" height="50" relative="1" as="geometry">
            <mxPoint x="700" y="220" as="sourcePoint" />
            <mxPoint x="670" y="220" as="targetPoint" />
          </mxGeometry>
        </mxCell>
        <mxCell id="8cCIm4Pd3RRphdGVdave-65" value="1" style="text;strokeColor=none;align=center;fillColor=none;html=1;verticalAlign=middle;whiteSpace=wrap;rounded=0;" vertex="1" parent="1">
          <mxGeometry x="170" y="90" width="60" height="30" as="geometry" />
        </mxCell>
        <mxCell id="8cCIm4Pd3RRphdGVdave-66" value="M" style="text;strokeColor=none;align=center;fillColor=none;html=1;verticalAlign=middle;whiteSpace=wrap;rounded=0;" vertex="1" parent="1">
          <mxGeometry x="170" y="270" width="60" height="30" as="geometry" />
        </mxCell>
        <mxCell id="8cCIm4Pd3RRphdGVdave-67" value="M" style="text;strokeColor=none;align=center;fillColor=none;html=1;verticalAlign=middle;whiteSpace=wrap;rounded=0;" vertex="1" parent="1">
          <mxGeometry x="170" y="180" width="60" height="30" as="geometry" />
        </mxCell>
        <mxCell id="8cCIm4Pd3RRphdGVdave-68" value="M" style="text;strokeColor=none;align=center;fillColor=none;html=1;verticalAlign=middle;whiteSpace=wrap;rounded=0;" vertex="1" parent="1">
          <mxGeometry x="530" y="90" width="60" height="30" as="geometry" />
        </mxCell>
        <mxCell id="8cCIm4Pd3RRphdGVdave-69" value="M" style="text;strokeColor=none;align=center;fillColor=none;html=1;verticalAlign=middle;whiteSpace=wrap;rounded=0;" vertex="1" parent="1">
          <mxGeometry x="230" y="300" width="60" height="30" as="geometry" />
        </mxCell>
        <mxCell id="8cCIm4Pd3RRphdGVdave-70" value="M" style="text;strokeColor=none;align=center;fillColor=none;html=1;verticalAlign=middle;whiteSpace=wrap;rounded=0;" vertex="1" parent="1">
          <mxGeometry x="470" y="150" width="60" height="30" as="geometry" />
        </mxCell>
        <mxCell id="8cCIm4Pd3RRphdGVdave-71" value="M" style="text;strokeColor=none;align=center;fillColor=none;html=1;verticalAlign=middle;whiteSpace=wrap;rounded=0;" vertex="1" parent="1">
          <mxGeometry x="530" y="360" width="60" height="30" as="geometry" />
        </mxCell>
        <mxCell id="8cCIm4Pd3RRphdGVdave-72" value="1" style="text;strokeColor=none;align=center;fillColor=none;html=1;verticalAlign=middle;whiteSpace=wrap;rounded=0;" vertex="1" parent="1">
          <mxGeometry x="90" y="150" width="60" height="30" as="geometry" />
        </mxCell>
        <mxCell id="8cCIm4Pd3RRphdGVdave-73" value="1" style="text;strokeColor=none;align=center;fillColor=none;html=1;verticalAlign=middle;whiteSpace=wrap;rounded=0;" vertex="1" parent="1">
          <mxGeometry x="170" y="370" width="60" height="30" as="geometry" />
        </mxCell>
      </root>
    </mxGraphModel>
  </diagram>
</mxfile>
